PathFileType	4	(X/Y/Z)	S00_P01_T02_Participants1-2_P1_0-100.trc
DataRate	CameraRate	NumFrames	NumMarkers	Units	OrigDataRate	OrigDataStartFrame	OrigNumFrames
60	60	8	21	m	60	37	100
Frame#	Time	RHip			RKnee			RAnkle			RBigToe			RSmallToe			RHeel			LHip			LKnee			LAnkle			LBigToe			LSmallToe			LHeel			Neck			Head			Nose			RShoulder			RElbow			RWrist			LShoulder			LElbow			LWrist		
		X1	Y1	Z1	X2	Y2	Z2	X3	Y3	Z3	X4	Y4	Z4	X5	Y5	Z5	X6	Y6	Z6	X7	Y7	Z7	X8	Y8	Z8	X9	Y9	Z9	X10	Y10	Z10	X11	Y11	Z11	X12	Y12	Z12	X13	Y13	Z13	X14	Y14	Z14	X15	Y15	Z15	X16	Y16	Z16	X17	Y17	Z17	X18	Y18	Z18	X19	Y19	Z19	X20	Y20	Z20	X21	Y21	Z21
38	0.6333333333333333	-1.0510453994639177	0.9498403390608399	-0.9743256502113298	-0.875864841712974	0.9392048784358564	-0.7312337311343914	-0.8763933121196641	0.9132594308004548	-0.9651125751995517	-0.7781900662687471	0.9078543988109588	-1.041103153545118	-0.8009026078694653	0.8873912991914741	-1.0356743472332082	-0.8974897504010425	0.9191083210840185	-1.0080352505917676	-1.0515943354816486	0.9504542522487794	-1.1185066125115708	-0.8780286947982214	0.9416819765952308	-1.35670214821041	-0.8897356227663467	0.9196253533515697	-1.1238308899654885	-0.789225881908133	0.9114124910839316	-1.0578564422810497	-0.8129578965479323	0.8916201354768929	-1.0617373965727408	-0.9115516973319776	0.9262689167787239	-1.0792497583412346	-1.0739199794544532	1.3595739535030757	-1.046533842001931	-1.038026072942508	1.517320886096988	-1.0581997721130605	-0.9874467101876155	1.4230227496977004	-1.0443399862573994	-1.0932744566616037	1.3039690173564598	-0.9235074557060865	-1.0403577187004989	1.1287024160872627	-0.8365926459566169	-0.8841525211239435	1.0485047995163903	-0.9184072102453589	-1.0808856599032803	1.307843381234086	-1.1782416434070484	-1.0444132097325978	1.1354713893640869	-1.264590013412913	-0.9057858421824846	1.072521367153349	-1.1370927075213422
39	0.65	-1.0510399130378318	0.9463894091078477	-0.9743310099376259	-0.8758580615697918	0.9357547324641546	-0.7312454123923413	-0.8750203305231409	0.9092034565368997	-0.9650626418219185	-0.7763955782063565	0.9036976432856009	-1.0404879985723137	-0.799121036401608	0.8832288039638218	-1.035134510630375	-0.895891114204934	0.9149306362575338	-1.0081121030820541	-1.0515895326334987	0.9470036521962062	-1.1185117878437567	-0.8780258973966004	0.9382327669512178	-1.3567104002311776	-0.8897314614924676	0.9161755268471404	-1.1238391927150067	-0.7892215041520736	0.9079629014061781	-1.0578672461417808	-0.8129535035123564	0.8881706387831628	-1.0617476326154536	-0.9115472075616204	0.9228188756857193	-1.0792578224374745	-1.072679812091677	1.3564122553478106	-1.045714752612752	-1.0380094570951244	1.5138768453999687	-1.058192117681136	-0.9874893073092219	1.419556296233399	-1.044390499565729	-1.0900949082138753	1.301187541274126	-0.9211989247829863	-1.040602493993997	1.1263297160266987	-0.8344950561842105	-0.8856872534196768	1.044046557090545	-0.9167055204523057	-1.080879431410436	1.3043897796859454	-1.1782521424576318	-1.0444085505967649	1.1320197903785199	-1.2645983163452919	-0.9055596707533935	1.0670724666521434	-1.1385632933932626
40	0.6666666666666666	-1.0510343130786644	0.9428641925198404	-0.9743364728486623	-0.8758511364473646	0.9322303135465562	-0.7312573638540503	-0.8736174984377821	0.9050614398115437	-0.9650023334986267	-0.7745652120562804	0.8994544037249919	-1.0398476891455752	-0.797303445627806	0.8789795098519612	-1.0345711903786174	-0.8942569426269551	0.9106641632732155	-1.008179699158728	-1.0515846315725368	0.9434787719181942	-1.1185170477092452	-0.8780230412690868	0.934709303810216	-1.3567187913033778	-0.8897272114701309	0.9126514348505239	-1.1238476590545343	-0.7892170308052132	0.9044390503566359	-1.057878279681594	-0.8129490143452209	0.884646882884722	-1.0617580850429238	-0.9115426225890889	0.9192945648702963	-1.0792660474057014	-1.0721818602904079	1.3529996770533672	-1.04539505612901	-1.0379924780022265	1.5103586441443784	-1.0581842551160907	-0.9874979678231636	1.4160235221963684	-1.044414644237302	-1.0865114812547045	1.298415220393027	-0.9185987332507641	-1.0408567411337526	1.1239311629749105	-0.8323636615466431	-0.8872801160132684	1.0395020500041896	-0.9149260480812723	-1.0808730945016771	1.3008618333844757	-1.178262784334581	-1.0444038060216558	1.1284938887005729	-1.2646067328645572	-0.9053505458006077	1.061517720609809	-1.14008477365935
41	0.6833333333333333	-1.0510286297697404	0.9392836251485749	-0.9743420091807239	-0.875844103493979	0.9286505530596048	-0.7312695223493508	-0.8721923885886302	0.9008557236433326	-0.9649314594302283	-0.7727090227652115	0.8951476670226292	-1.0391850269827592	-0.7954597981861334	0.8746664258621827	-1.0339867744814766	-0.8925960139624366	0.9063319113494437	-1.0082370663624007	-1.0515796587508688	0.9398985454276787	-1.1185223626930687	-0.878020141680788	0.9311305133989779	-1.3567272745306307	-0.8897228954335955	0.9090720070315753	-1.12385624287138	-0.7892124856981133	0.900859866252789	-1.0578894835719728	-0.8129444529502101	0.8810677955972929	-1.0617686976014942	-0.9115379669823321	0.9157149151980686	-1.079274388558896	-1.0721226911747324	1.3494274370006776	-1.0453704700941722	-1.0379752264996378	1.5067851792759166	-1.0581762246669162	-0.9874883398951814	1.4124396673968491	-1.0444246150211327	-1.0833360344490226	1.295500100854519	-0.9162976518935849	-1.0411192970381495	1.1215209729050546	-0.8302108563613712	-0.8889238018476999	1.0348975399584823	-0.9130759848521124	-1.0808666844039136	1.2972784928321066	-1.178273507795018	-1.0443990021121035	1.1249126237848537	-1.2646152146287124	-0.9051608417727127	1.0558879186257228	-1.141649808803194
42	0.7	-1.0510228936822594	0.9356669396180672	-0.974347589003082	-0.8758370004367153	0.9250346791525114	-0.7312818233235658	-0.8707527020140701	0.8966089743378687	-0.9648500328081983	-0.7708371656824836	0.8908007152549435	-1.0385031240493494	-0.7936001649727951	0.8703128607970455	-1.0333839534412488	-0.890917272618734	0.901957226492439	-1.0082834595087489	-1.0515746409357647	0.9362822034964534	-1.118527703546842	-0.8780172141182476	0.9275156186523444	-1.3567358031694956	-0.8897185364714177	0.9054564697938543	-1.123864897693773	-0.7892078930819895	0.8972445741464314	-1.0579007976433936	-0.8129398436574506	0.8774526014593987	-1.0617794132684457	-0.9115332656787087	0.9120991542783959	-1.0792828008194766	-1.0722586549657205	1.3457727479155364	-1.0454770294693458	-1.0379577949674135	1.5031756444017192	-1.0581680682000563	-0.9874718187650919	1.40882128262321	-1.0444292642741135	-1.0811079343644256	1.2923482029451467	-0.914687711669522	-1.0413888847539021	1.119113017083462	-0.8280489958643994	-0.8906103209003973	1.0302595657368077	-0.9111635805739255	-1.0808602363392585	1.2936590055456054	-1.1782842525281025	-1.0443941650658632	1.1212952319508223	-1.2646237140241015	-0.9049924822074968	1.0502140946550598	-1.1432505007093914
43	0.7166666666666667	-1.0510171355957478	0.9320335620124962	-0.9743531823641715	-0.8758298653646268	0.9214021134621796	-0.7312942011509077	-0.8693062243556594	0.8923440575203234	-0.9647582785752786	-0.7689598362762613	0.8864369967324116	-1.0378053948409485	-0.7917346656886295	0.8659422943156948	-1.0327657149032774	-0.8892297790063515	0.8975636637620562	-1.008318374144277	-1.051569605050713	0.9326491703535493	-1.1185330413417445	-0.8780142741943419	0.9238840359563661	-1.3567443308867073	-0.8897141578901159	0.9018242429978961	-1.1238735769301025	-0.7892032774872814	0.8936125925549893	-1.057912161190751	-0.812935211081891	0.873820718466282	-1.0617901745413358	-0.9115285438381242	0.9084667031808926	-1.0792912389490583	-1.0724365327831182	1.34209147317281	-1.045611639194833	-1.0379402768411703	1.499549426703041	-1.0581598289910676	-0.9874549797618668	1.4051862601134277	-1.0444336588456888	-1.0798700820913611	1.288970380540708	-0.9137994660753832	-1.0416641181494306	1.116720729083283	-0.8258903051233328	-0.8923310283967232	1.025614729224067	-0.9091981407606209	-1.0808537853055273	1.2900228126651847	-1.178294959512216	-1.0443893210111908	1.1176611430526884	-1.2646321844427193	-0.9048469088512094	1.0445273352475786	-1.1448784297846437
44	0.7333333333333333	-1.0510113863284858	0.9284030075166115	-0.9743587594389822	-0.8758227365194972	0.9177723667795364	-0.7313065894692153	-0.8678607814255932	0.8880839134728485	-0.9646566366915446	-0.7670872104136888	0.8820799971434045	-1.0370955426708113	-0.7898734097528592	0.8615782479923925	-1.0321353323610334	-0.8875426582122419	0.8931748587295475	-1.0083415547863714	-1.0515645780268952	0.9290189593357556	-1.1185383476146866	-0.8780113375623375	0.9202552708423886	-1.356752812005038	-0.8897097830862417	0.8981948356360988	-1.1238822341093688	-0.7891986635893978	0.8899834291441843	-1.057923513287912	-0.8129305799887258	0.870191653755275	-1.061800923735495	-0.911523826704801	0.904837072103685	-1.079299657780613	-1.0725817877611308	1.3384208462866103	-1.0457241347572794	-1.0379227661158708	1.4959260027933512	-1.0581515514919	-0.9874406445760552	1.4015534746624145	-1.0444399189752147	-1.0793730179983565	1.2854390731097616	-0.913450773217878	-1.0419435088644997	1.1143570237300797	-0.8237467916358343	-0.8940766662861133	1.0209894797152468	-0.9071900004018792	-1.0808473658774116	1.2863894445141126	-1.1783055713394959	-1.0443844958598825	1.1140298761002132	-1.2646405805345617	-0.9047250614514196	1.0388585907803862	-1.1465247028172383
45	0.75	-1.0510056765757458	0.9247947756043163	-0.9743642906754512	-0.8758156520923736	0.9141649342625543	-0.7313189215315697	-0.8664241944280251	0.8838514325573547	-0.9645457607934489	-0.7652293857394575	0.877753111623419	-1.0363775399723458	-0.7880264381096579	0.8572441572049303	-1.0314963479117218	-0.8858650478834991	0.8888143989401528	-1.0083529977776566	-1.0515595866628042	0.9254110680859383	-1.1185435945057023	-0.8780084198364803	0.9166488132275011	-1.3567612017350759	-0.8897054354244979	0.8945877410546696	-1.1238908231198124	-0.7891940760793524	0.886376575957381	-1.0579347931075043	-0.8129259751635888	0.8665848988379541	-1.0618116032859783	-0.9115191394753749	0.9012297555888957	-1.0793080124500405	-1.07267248479152	1.3347855825162733	-1.0457997235043657	-1.0379053568446914	1.4923248341155937	-1.0581432810756957	-0.9874293339914513	1.397942332627233	-1.0444483601331025	-1.0793139153803242	1.2818378154374208	-0.9134208258363113	-1.0422254754461846	1.1120342285638485	-0.8216301629740305	-0.8958374176769697	1.016409901108795	-0.9051504732131324	-1.0808410120261676	1.2827784157052595	-1.1783160325045967	-1.0443797151731031	1.110420934426433	-1.2646488584325146	-0.9046273686556406	1.0332384916443738	-1.1481800109452163
